# xmcd
# Copyright (C) 1995-1998 Ti Kan
#
# Track frame offsets:
#       183
#       11038
#       23133
#       36090
#       48583
#       61003
#       70580
#       83523
#       94893
#       105468
#       117013
#       128085
#       140843
#       153478
#       165898
#       178595
#       191240
#       201590
#       213240
#       225245
#       236165
#       247268
#       258055
#
# Disc length: 3610 seconds
#
# Revision: 0
# Processed by: cddbd v1.5.2PL0 Copyright (c) Steve Scherf et al.
# Submitted via: CD-Import v1.0
#
DISCID=340e1817
DTITLE=Various Artist - Phil Spector - Bacl To Mono (1958-1969)
DYEAR=1900
DGENRE=
TTITLE0=Teddy Bears - To Know Him Is To Love Him
TTITLE1=Ray Peterson - Corrine, Corrina
TTITLE2=Ben E. King - Spanish Harlem
TTITLE3=Curtis Lee - Pretty Little Angel Eyes
TTITLE4=Gene Pitney - Every Breath I Take
TTITLE5=The Paris Sisters - I Love How You Love Me
TTITLE6=Curtis Lee - Under The Moon Of Love
TTITLE7=The Crystals - There's No Other (Like My Baby)
TTITLE8=The Crystals - Uptown
TTITLE9=The Crystals - He Hit Me (It Felt Like A Kiss)
TTITLE10=The Crystals - He's A Rebel
TTITLE11=Bob B. Soxx And The Blue Jeans - Zip-A-Dee-Doo-Dah
TTITLE12=Alley Cats - Puddin' N' Tain
TTITLE13=The Crystals - He's Sure The Boy I Love
TTITLE14=Bob B. Soxx And The Blue Jeans - Why Do Lovers Break Each Other's Hearts
TTITLE15=Darlene Love - (Today I Met) The Boy I'm Gonna Marry
TTITLE16=The Crystals - Da Doo Ron Ron
TTITLE17=The Crystals - Heartbreaker
TTITLE18=Veronica - Why Don't They Let Us Fall In Love
TTITLE19=Darlene Love - Chapel Of Love
TTITLE20=Bob B. Soxx And The Blue Jeans - Not Too Young To Get Married
TTITLE21=Darlene Love - Wait Til My Bobby Comes Home
TTITLE22=The Crystals - All Grown Up
EXTD=
EXTT0=
EXTT1=
EXTT2=
EXTT3=
EXTT4=
EXTT5=
EXTT6=
EXTT7=
EXTT8=
EXTT9=
EXTT10=
EXTT11=
EXTT12=
EXTT13=
EXTT14=
EXTT15=
EXTT16=
EXTT17=
EXTT18=
EXTT19=
EXTT20=
EXTT21=
EXTT22=
PLAYORDER=
